<svg width="26" height="33" viewBox="0 0 26 33" fill="none" xmlns="http://www.w3.org/2000/svg">
<path d="M24.8435 17.5542C22.3577 11.0942 13.5068 10.7458 15.6443 1.35668C15.8027 0.660014 15.0585 0.12168 14.4568 0.485847C8.70933 3.87418 4.57683 10.6667 8.04433 19.565C8.32933 20.2933 7.47433 20.9742 6.85683 20.4992C3.991 18.33 3.69016 15.2108 3.9435 12.9783C4.0385 12.155 2.96183 11.7592 2.50266 12.44C1.426 14.0867 0.333496 16.7467 0.333496 20.7525C0.935163 29.6192 8.42433 32.3425 11.116 32.6908C14.9635 33.1817 19.1277 32.4692 22.1202 29.73C25.4135 26.6742 26.6168 21.7975 24.8435 17.5542ZM10.1502 25.5183C12.4302 24.9642 13.6018 23.3175 13.9185 21.8608C14.441 19.5967 12.3985 17.38 13.776 13.8017C14.2985 16.7625 18.9535 18.615 18.9535 21.845C19.0802 25.8508 14.7418 29.2867 10.1502 25.5183Z" fill="#2F798C"/>
</svg>
